<svg width="37" height="36" viewBox="0 0 37 36" fill="none" xmlns="http://www.w3.org/2000/svg">
<path d="M32.8516 0C32.341 0 3.68835 0 3.17969 0C1.43506 0 0.015625 1.41943 0.015625 3.16406V4.77109C0.015625 7.37402 0.911011 9.92697 2.53726 11.9594C3.88968 13.65 5.81339 14.9741 7.95407 15.6877L9.07193 16.0601C10.3702 18.1755 12.4066 19.8051 14.8516 20.579V22.2188C14.8516 22.8002 14.3783 23.2734 13.7969 23.2734C12.0522 23.2734 10.6328 24.6929 10.6328 26.4375V27.4922H9.57812C8.99557 27.4922 8.52344 27.9643 8.52344 28.5469V33.8906H7.46875C6.8862 33.8906 6.41406 34.3628 6.41406 34.9453C6.41406 35.5279 6.8862 36 7.46875 36H28.5625C29.1451 36 29.6172 35.5279 29.6172 34.9453C29.6172 34.3628 29.1451 33.8906 28.5625 33.8906H27.5078V28.5469C27.5078 27.9643 27.0357 27.4922 26.4531 27.4922H25.3984V26.4375C25.3984 24.6929 23.979 23.2734 22.2344 23.2734C21.6529 23.2734 21.1797 22.8002 21.1797 22.2188V20.579C23.6219 19.8059 25.6563 18.1794 26.9549 16.0672L28.1338 15.692C28.1382 15.6907 28.1428 15.689 28.1472 15.6877C30.2563 14.9845 32.1053 13.6953 33.494 11.9594C35.1202 9.92697 36.0156 7.37402 36.0156 4.77109V3.16406C36.0156 1.41943 34.5962 0 32.8516 0ZM4.18439 10.6416C2.85641 8.9816 2.125 6.89694 2.125 4.77109V3.16406C2.125 2.58261 2.59824 2.10938 3.17969 2.10938H6.52475L7.59811 11.7697C7.66101 12.3346 7.7706 12.8864 7.92056 13.422C6.44565 12.8021 5.13745 11.8328 4.18439 10.6416ZM10.6328 33.8906V29.6016H25.3984V33.8906H10.6328ZM19.8885 18.7465C19.4095 18.8567 19.0703 19.2829 19.0703 19.7743V22.2188C19.0703 23.9634 20.4897 25.3828 22.2344 25.3828C22.8158 25.3828 23.2891 25.856 23.2891 26.4375V27.4922H12.7422V26.4375C12.7422 25.856 13.2154 25.3828 13.7969 25.3828C15.5415 25.3828 16.9609 23.9634 16.9609 22.2188V19.7743C16.9609 19.2829 16.6217 18.8567 16.1427 18.7465C12.6763 17.9489 10.0851 15.0515 9.69458 11.5367L8.64703 2.10938H27.3842L26.3367 11.5367C25.9461 15.0515 23.355 17.9489 19.8885 18.7465ZM33.9062 4.77109C33.9062 6.89694 33.1748 8.9816 31.8469 10.6416C30.8512 11.8864 29.5658 12.8493 28.1013 13.4547C28.2563 12.9087 28.3689 12.3462 28.4331 11.7697L29.5065 2.10938H32.8516C33.433 2.10938 33.9062 2.58261 33.9062 3.16406V4.77109Z" fill="url(#paint0_linear)"/>
<defs>
<linearGradient id="paint0_linear" x1="18.0156" y1="0" x2="18.0156" y2="36" gradientUnits="userSpaceOnUse">
<stop stop-color="#0EB5A4"/>
<stop offset="1" stop-color="#3040B3"/>
</linearGradient>
</defs>
</svg>
