<svg width="163" height="122" viewBox="0 0 163 122" fill="none" xmlns="http://www.w3.org/2000/svg">
<path d="M89.1625 9.23L89.4225 10.14C85.5225 14.04 81.2758 18.4167 76.6825 23.27C72.0892 28.0367 66.9325 33.8867 61.2125 40.82C55.4925 47.7533 50.6392 55.64 46.6525 64.48C42.6658 73.2333 40.6725 81.9867 40.6725 90.74C40.6725 92.2133 40.7592 94.2933 40.9325 96.98C41.1925 99.6667 41.3225 101.227 41.3225 101.66C41.3225 107.553 39.5025 112.363 35.8625 116.09C32.2225 119.817 27.8458 121.68 22.7325 121.68C17.3592 121.68 13.1125 119.903 9.9925 116.35C6.8725 112.797 5.3125 108.333 5.3125 102.96C5.3125 97.9333 7.08916 92.69 10.6425 87.23C14.2825 81.77 18.5725 76.6133 23.5125 71.76C28.5392 66.9067 33.3925 62.4433 38.0725 58.37C42.7525 54.21 47.1292 50.3533 51.2025 46.8C55.3625 43.16 58.9592 39.91 61.9925 37.05L61.7325 36.4C60.6925 36.4 58.2225 36.4867 54.3225 36.66C50.4225 36.7467 47.7792 36.79 46.3925 36.79H17.2725C12.9392 36.79 9.9925 37.2667 8.4325 38.22C6.95916 39.0867 5.48583 41.0367 4.0125 44.07L2.4525 47.97L0.892497 47.58L14.5425 0.389993H16.1025L15.7125 3.77C15.7125 6.28333 16.3625 7.88666 17.6625 8.58C19.0492 9.18666 21.5625 9.48999 25.2025 9.48999H48.0825C56.3158 9.48999 63.9858 9.48999 71.0925 9.48999C78.2858 9.40333 84.3092 9.31666 89.1625 9.23ZM133.749 50.44C142.676 50.44 149.739 52.65 154.939 57.07C160.139 61.49 162.739 67.47 162.739 75.01C162.739 85.15 157.409 92.7767 146.749 97.89C136.176 103.003 124.303 105.56 111.129 105.56C102.203 105.56 94.1428 103.35 86.9495 98.93C79.7561 94.51 76.1595 89.0067 76.1595 82.42C76.1595 77.48 77.8495 73.3633 81.2295 70.07C84.6095 66.7767 88.7695 65.13 93.7095 65.13C98.9095 65.13 103.113 66.5167 106.319 69.29C109.613 71.9767 111.259 75.53 111.259 79.95C111.259 83.1567 110.609 85.6267 109.309 87.36C108.096 89.0067 106.449 90.74 104.369 92.56C102.376 94.2933 101.163 95.42 100.729 95.94C100.296 96.46 100.079 97.2833 100.079 98.41C100.079 99.97 101.293 101.227 103.719 102.18C106.146 103.047 109.049 103.48 112.429 103.48C118.669 103.48 123.349 101.183 126.469 96.59C129.676 91.9967 131.279 85.8867 131.279 78.26C131.279 71.5 129.546 65.52 126.079 60.32C122.699 55.0333 118.063 52.39 112.169 52.39C110.089 52.39 108.139 52.65 106.319 53.17C104.673 53.7767 103.069 54.3833 101.509 54.99C101.076 54.99 100.599 54.8167 100.079 54.47C99.6461 54.0367 99.4295 53.56 99.4295 53.04C99.4295 52 100.339 51.3067 102.159 50.96C104.066 50.6133 106.233 50.44 108.659 50.44C114.639 50.44 119.276 48.7067 122.569 45.24C125.863 41.7733 127.509 36.8767 127.509 30.55C127.509 25.0033 126.339 20.3233 123.999 16.51C121.746 12.61 118.019 10.66 112.819 10.66C109.786 10.66 106.883 11.2667 104.109 12.48C101.423 13.6067 100.079 15.21 100.079 17.29C100.079 18.4167 100.426 19.37 101.119 20.15C101.813 20.93 103.156 21.4933 105.149 21.84C107.229 22.1867 109.006 23.2267 110.479 24.96C111.953 26.6067 112.689 28.73 112.689 31.33C112.689 35.0567 111.259 37.9167 108.399 39.91C105.626 41.9033 101.986 42.9 97.4795 42.9C93.2328 42.9 89.7661 41.6433 87.0795 39.13C84.3928 36.6167 83.0495 33.3667 83.0495 29.38C83.0495 25.48 85.1728 21.71 89.4195 18.07C93.6661 14.3433 98.5628 11.7 104.109 10.14C109.656 8.58 115.246 7.8 120.879 7.8C131.973 7.8 140.856 9.57666 147.529 13.13C154.289 16.6833 157.669 22.3167 157.669 30.03C157.669 35.8367 155.329 40.3867 150.649 43.68C146.056 46.8867 140.423 48.7933 133.749 49.4V50.44Z" fill="#4A4A4A"/>
</svg>
